<svg xmlns:mydata="http://www.w3.org/2000/svg" mydata:contrastcolor="151f42" mydata:template="Contrast" mydata:presentation="2.5" mydata:layouttype="undefined" mydata:specialfontid="undefined" mydata:id1="505" mydata:id2="072" mydata:companyname="WINC" mydata:companytagline="Online education" version="1.1" xmlns="http://www.w3.org/2000/svg" xmlns:xlink="http://www.w3.org/1999/xlink" viewBox="0 0 550 470" style="height: 597px;"><defs><linearGradient x1="181.26948" y1="235" x2="368.73052" y2="235" gradientUnits="userSpaceOnUse" id="color-1994249014"><stop offset="0" stop-color="#4568dc"></stop><stop offset="1" stop-color="#b06ab3"></stop></linearGradient></defs><g fill="url(#color-1994249014)" fill-rule="none" stroke="none" stroke-width="1" stroke-linecap="butt" stroke-linejoin="miter" stroke-miterlimit="10" stroke-dasharray="" stroke-dashoffset="0" font-family="none" font-weight="none" font-size="none" text-anchor="none" style="mix-blend-mode: normal"><g data-paper-data="{&quot;isGlobalGroup&quot;:true,&quot;bounds&quot;:{&quot;x&quot;:181.26948350699672,&quot;y&quot;:115,&quot;width&quot;:187.46103298600656,&quot;height&quot;:240}}"><g data-paper-data="{&quot;isSecondaryText&quot;:true}" fill-rule="nonzero" id="element-id-33810"><path d="M193.75549,308.15194c0,-5.4698 -8.11429,-5.4698 -8.11429,0c0,5.4811 8.11429,5.4811 8.11429,0zM187.72063,308.15194c0,-2.84791 3.96674,-2.84791 3.96674,0c0,2.87052 -3.96674,2.87052 -3.96674,0z" data-paper-data="{&quot;glyphName&quot;:&quot;O&quot;,&quot;glyphIndex&quot;:0,&quot;firstGlyphOfWord&quot;:true,&quot;word&quot;:1}" id="element-id-6766"></path><path d="M203.71565,312.10737h0.72328v-7.92217c-0.68938,0 -1.37875,0 -2.06813,0v3.87633l-4.00064,-3.91023h-0.73458v7.94477c0.68938,0 1.39005,0 2.09073,0v-3.88763z" data-paper-data="{&quot;glyphName&quot;:&quot;N&quot;,&quot;glyphIndex&quot;:1,&quot;word&quot;:1}" id="element-id-12433"></path><path d="M210.8279,304.1852c-0.68938,0 -1.35615,0 -2.03422,0v7.91087c1.60478,0 3.27736,0 4.90474,0c0,-0.67807 0,-1.14143 0,-1.8195h-2.87052c0,-3.36777 0,-2.00032 0,-6.09137z" data-paper-data="{&quot;glyphName&quot;:&quot;L&quot;,&quot;glyphIndex&quot;:2,&quot;word&quot;:1}" id="element-id-18909"></path><path d="M219.79356,310.32178v-4.37358h0.9267v-1.76299h-3.85372v1.76299h0.9267v4.37358h-1.00581v1.7743h4.01194v-1.7743z" data-paper-data="{&quot;glyphName&quot;:&quot;I&quot;,&quot;glyphIndex&quot;:3,&quot;word&quot;:1}" id="element-id-4481"></path><path d="M230.55611,312.10737h0.72328v-7.92217c-0.68938,0 -1.37875,0 -2.06813,0v3.87633l-4.00064,-3.91023h-0.73458v7.94477c0.68938,0 1.39005,0 2.09073,0v-3.88763z" data-paper-data="{&quot;glyphName&quot;:&quot;N&quot;,&quot;glyphIndex&quot;:4,&quot;word&quot;:1}" id="element-id-40544"></path><path d="M240.58408,304.1852c-1.8534,0 -3.10784,0 -4.93864,0c0,2.62189 0,5.26638 0,7.91087c1.8308,0 3.18695,0 5.04035,0c0,-0.59897 0,-1.20923 0,-1.7969c-1.18663,0 -1.86471,0 -3.02873,0c0,-0.47465 0,-0.9267 0,-1.39005h2.6897c0,-0.59897 0,-1.19793 0,-1.7969h-2.6897v-1.11882c1.16403,0 1.75169,0 2.92702,0c0,-0.61027 0,-1.22053 0,-1.8082z" data-paper-data="{&quot;glyphName&quot;:&quot;E&quot;,&quot;glyphIndex&quot;:5,&quot;lastGlyphOfWord&quot;:true,&quot;word&quot;:1}" id="element-id-31026"></path><path d="M255.18152,304.1852c-1.8534,0 -3.10784,0 -4.93864,0c0,2.62189 0,5.26638 0,7.91087c1.8308,0 3.18695,0 5.04035,0c0,-0.59897 0,-1.20923 0,-1.7969c-1.18663,0 -1.86471,0 -3.02873,0c0,-0.47465 0,-0.9267 0,-1.39005h2.6897c0,-0.59897 0,-1.19793 0,-1.7969h-2.6897v-1.11882c1.16403,0 1.75169,0 2.92702,0c0,-0.61027 0,-1.22053 0,-1.8082z" data-paper-data="{&quot;glyphName&quot;:&quot;E&quot;,&quot;glyphIndex&quot;:6,&quot;firstGlyphOfWord&quot;:true,&quot;word&quot;:2}" id="element-id-4575"></path><path d="M262.36158,304.1852h-2.98353v7.91087h2.98353c5.15337,-0.0226 5.15337,-7.88827 0,-7.91087zM261.40097,306.0273h0.96061c2.52018,0 2.52018,4.22667 0,4.22667h-0.96061z" data-paper-data="{&quot;glyphName&quot;:&quot;D&quot;,&quot;glyphIndex&quot;:7,&quot;word&quot;:2}" id="element-id-30075"></path><path d="M273.18063,310.38958c-0.58766,0 -1.20923,-0.31643 -1.20923,-0.96061v-5.24378c-0.63287,0 -1.29964,0 -1.93251,0v5.27768c0,1.74039 1.52567,2.7462 3.14175,2.7462c1.62738,0 3.13044,-1.00581 3.13044,-2.7462v-5.27768c-0.63287,0 -1.28834,0 -1.93251,0v5.24378c0,0.64417 -0.61027,0.96061 -1.19793,0.96061z" data-paper-data="{&quot;glyphName&quot;:&quot;U&quot;,&quot;glyphIndex&quot;:8,&quot;word&quot;:2}" id="element-id-48445"></path><path d="M280.15727,308.14064c0.0113,2.6897 2.04553,4.04585 4.05715,4.03454c1.68389,0 3.45818,-0.8815 3.75201,-3.11914c-0.68938,0 -1.31094,0 -1.98902,0c-0.21472,0.84759 -0.9041,1.27704 -1.76299,1.27704c-1.19793,-0.0113 -1.96642,-1.02841 -1.96642,-2.19244c0,-1.31094 0.77979,-2.20374 1.96642,-2.20374c0.84759,0 1.44656,0.36164 1.72909,1.16403c0.68938,0 1.29964,0 1.98902,0c-0.30513,-2.11333 -2.07943,-3.00613 -3.71811,-3.00613c-2.01162,0 -4.04585,1.35615 -4.05715,4.04585z" data-paper-data="{&quot;glyphName&quot;:&quot;C&quot;,&quot;glyphIndex&quot;:9,&quot;word&quot;:2}" id="element-id-16968"></path><path d="M296.89818,312.09607h1.97772v-0.29383l-3.57119,-7.71875h-0.8702l-3.55989,7.71875v0.29383h1.97772l0.46335,-0.99451h3.11914zM295.77935,309.37247h-1.8082l0.8928,-2.07943z" data-paper-data="{&quot;glyphName&quot;:&quot;A&quot;,&quot;glyphIndex&quot;:10,&quot;word&quot;:2}" id="element-id-97602"></path><path d="M302.9029,305.9934v6.10267c0.66677,0 1.33355,0 2.00032,0v-6.10267h1.93251c0,-0.61027 0,-1.20923 0,-1.8082h-5.87665c0,0.59897 0,1.19793 0,1.8082z" data-paper-data="{&quot;glyphName&quot;:&quot;T&quot;,&quot;glyphIndex&quot;:11,&quot;word&quot;:2}" id="element-id-57267"></path><path d="M312.79526,310.32178v-4.37358h0.9267v-1.76299h-3.85372v1.76299h0.9267v4.37358h-1.00581v1.7743h4.01194v-1.7743z" data-paper-data="{&quot;glyphName&quot;:&quot;I&quot;,&quot;glyphIndex&quot;:12,&quot;word&quot;:2}" id="element-id-79405"></path><path d="M325.10608,308.15194c0,-5.4698 -8.11429,-5.4698 -8.11429,0c0,5.4811 8.11429,5.4811 8.11429,0zM319.07122,308.15194c0,-2.84791 3.96674,-2.84791 3.96674,0c0,2.87052 -3.96674,2.87052 -3.96674,0z" data-paper-data="{&quot;glyphName&quot;:&quot;O&quot;,&quot;glyphIndex&quot;:13,&quot;word&quot;:2}" id="element-id-71653"></path><path d="M335.06624,312.10737h0.72328v-7.92217c-0.68938,0 -1.37875,0 -2.06813,0v3.87633l-4.00064,-3.91023h-0.73458v7.94477c0.68938,0 1.39005,0 2.09073,0v-3.88763z" data-paper-data="{&quot;glyphName&quot;:&quot;N&quot;,&quot;glyphIndex&quot;:14,&quot;lastGlyphOfWord&quot;:true,&quot;word&quot;:2}" id="element-id-90443"></path></g><g data-paper-data="{&quot;isPrimaryText&quot;:true}" fill-rule="nonzero" id="element-id-15860"><path d="M200.2892,279.27786l4.83835,15.01557l0.58394,0.4171h8.34198l0.66736,-0.58394l4.67151,-57.14258l-0.58394,-0.66736h-8.34198l-0.66736,0.66736l-3.08653,36.70472l-5.75597,-14.84873h-1.2513l-5.75597,14.84873l-3.08653,-36.70472l-0.66736,-0.66736h-8.34198l-0.58394,0.66736l4.67151,57.14258l0.66736,0.58394h8.34198l0.58394,-0.4171z" data-paper-data="{&quot;glyphName&quot;:&quot;W&quot;,&quot;glyphIndex&quot;:0,&quot;firstGlyphOfWord&quot;:true,&quot;word&quot;:1}" id="element-id-23922"></path><path d="M250.42452,245.90993l0.66736,-0.66736v-8.25856l-0.66736,-0.66736h-22.60677l-0.66736,0.66736v8.25856l0.66736,0.66736h6.50675v39.1239h-6.50675l-0.66736,0.66736v8.34198l0.66736,0.66736h22.60677l0.66736,-0.66736v-8.34198l-0.66736,-0.66736h-6.42333v-39.1239z" data-paper-data="{&quot;glyphName&quot;:&quot;I&quot;,&quot;glyphIndex&quot;:1,&quot;word&quot;:1}" id="element-id-10218"></path><path d="M270.1116,236.73375l-0.58394,-0.4171h-8.34198l-0.66736,0.66736v57.05916l0.66736,0.66736h8.34198l0.66736,-0.66736v-36.78814l17.51816,37.0384l0.58394,0.4171h7.34094l0.66736,-0.66736v-57.05916l-0.66736,-0.66736h-8.25856l-0.66736,0.66736v34.70265z" data-paper-data="{&quot;glyphName&quot;:&quot;N&quot;,&quot;glyphIndex&quot;:2,&quot;word&quot;:1}" id="element-id-97349"></path><path d="M322.99977,244.74205c3.75389,0 7.00727,2.58601 8.0083,6.17307l0.91762,0.4171l7.34094,-4.25441l0.33368,-0.8342c-2.75285,-6.67359 -9.34302,-11.09484 -16.60055,-11.09484c-9.84354,0 -17.93526,8.0083 -17.93526,17.85184v24.94253c0,9.84354 8.09172,17.93526 17.93526,17.93526c7.25752,0 13.84769,-4.50467 16.60055,-11.17826l-0.33368,-0.8342l-7.34094,-4.25441l-0.91762,0.4171c-1.00104,3.58705 -4.25441,6.17307 -8.0083,6.17307c-4.50467,0 -8.25856,-3.75389 -8.25856,-8.25856v-24.94253c0,-4.50467 3.75389,-8.25856 8.25856,-8.25856z" data-paper-data="{&quot;glyphName&quot;:&quot;C&quot;,&quot;glyphIndex&quot;:3,&quot;lastGlyphOfWord&quot;:true,&quot;word&quot;:1}" id="element-id-47792"></path></g><g data-paper-data="{&quot;fillRule&quot;:&quot;evenodd&quot;,&quot;fillRuleOriginal&quot;:&quot;evenodd&quot;,&quot;isIcon&quot;:true,&quot;iconStyle&quot;:&quot;standalone&quot;,&quot;selectedEffects&quot;:{&quot;container&quot;:&quot;&quot;,&quot;transformation&quot;:&quot;&quot;,&quot;pattern&quot;:&quot;&quot;},&quot;bounds&quot;:{&quot;x&quot;:215.21438023804888,&quot;y&quot;:119.07465915379582,&quot;width&quot;:90.44103640788137,&quot;height&quot;:106.06635129368927},&quot;iconType&quot;:&quot;icon&quot;,&quot;rawIconId&quot;:&quot;1154243&quot;,&quot;combineTerms&quot;:&quot;programming&quot;,&quot;suitableAsStandaloneIcon&quot;:true}" fill-rule="evenodd" id="element-id-8235"><path d="M290.16809,126.24151c8.5776,0 15.48733,6.90973 15.48733,15.48733c0,6.67147 -4.16966,12.509 -10.48373,14.6534v0.11913c-0.11913,0.59567 -0.11913,1.19133 -0.23827,1.787c-0.59567,4.6462 -1.19133,9.88807 -4.76533,15.0108c-4.52707,6.4332 -11.91333,7.74367 -16.91693,8.10107c-3.2166,0.23827 -6.31407,0.3574 -9.41153,0.47653c-3.09747,0.11913 -6.19493,0.23827 -9.2924,0.47653c-3.9314,0.23827 -8.33933,0.95306 -10.48373,3.574c-2.38266,2.8592 -3.09747,6.90973 -3.574,11.67506c2.02527,1.54873 3.574,3.69313 4.52707,6.0758c3.33573,7.8628 -0.47653,16.91693 -8.33933,20.25266c-7.8628,3.33573 -16.91693,-0.47653 -20.25266,-8.33933c-3.33573,-7.8628 0.47653,-16.91693 8.33933,-20.25266v-46.46199c-3.81227,-1.54873 -6.7906,-4.52707 -8.33933,-8.33933c-3.33573,-7.8628 0.47653,-16.91693 8.33933,-20.25266c7.8628,-3.33573 16.91693,0.47653 20.25266,8.33933c3.33573,7.8628 -0.47653,16.91693 -8.33933,20.25266v27.40066c4.88447,-4.40793 11.55593,-5.48013 16.91693,-5.95666c3.2166,-0.23827 6.67147,-0.3574 9.6498,-0.47653c2.97833,-0.11913 6.0758,-0.23827 9.05413,-0.47653c4.52707,-0.3574 7.02886,-1.19133 8.2202,-2.97833c1.787,-2.62093 2.1444,-5.48013 2.62093,-9.53067c0,-0.3574 0.11913,-0.83393 0.11913,-1.31047c-5.24187,-2.62093 -8.5776,-7.98193 -8.5776,-13.81946c0,-8.5776 6.90973,-15.48733 15.48733,-15.48733zM234.17543,134.58084c0,-2.02527 -1.54873,-3.574 -3.574,-3.574c-2.02527,0 -3.574,1.54873 -3.574,3.574c0,2.02527 1.54873,3.574 3.574,3.574c2.02527,0 3.574,-1.54873 3.574,-3.574zM293.74209,141.72884c0,-2.02527 -1.54873,-3.574 -3.574,-3.574c-2.02527,0 -3.574,1.54873 -3.574,3.574c0,2.02527 1.54873,3.574 3.574,3.574c2.02527,0 3.574,-1.54873 3.574,-3.574zM227.02743,209.63482c0,2.02527 1.54873,3.574 3.574,3.574c2.02527,0 3.574,-1.54873 3.574,-3.574c0,-2.02527 -1.54873,-3.574 -3.574,-3.574c-2.02527,0 -3.574,1.54873 -3.574,3.574z" data-paper-data="{&quot;isPathIcon&quot;:true}" id="element-id-2082"></path></g><path d="M186.08404,349.36213v-30.47643l0.23666,0.09438l1.3491,0.39282l1.39981,0.12557l0.23988,-0.00162v29.86528c0,1.60775 0.80415,2.41163 2.41244,2.41163h171.37073c1.60829,0 2.41244,-0.80388 2.41244,-2.41163v-228.72425c0,-1.60829 -0.80415,-2.41244 -2.41244,-2.41244l-116.58368,0l-0.32652,-0.32922l-0.67133,-0.59727l-1.51814,-1.19294l-0.73733,-0.50953l-0.98882,-0.59647h120.82582c1.55677,0 2.88575,0.55059 3.98692,1.65176c1.10064,1.10064 1.65095,2.42934 1.65095,3.98611v228.72425c0,1.55677 -0.55032,2.88548 -1.65095,3.98611c-1.10117,1.10117 -2.43015,1.65176 -3.98692,1.65176h-171.37073c-1.55677,0 -2.88575,-0.55059 -3.98692,-1.65176c-1.10064,-1.10064 -1.65095,-2.42934 -1.65095,-3.98611zM186.08404,120.63787c0,-1.55677 0.55032,-2.88548 1.65095,-3.98611c1.10117,-1.10117 2.43015,-1.65176 3.98692,-1.65176h27.44562l-0.81303,0.48136l-0.74297,0.5039l-1.5278,1.18086l-0.67696,0.59325l-0.46993,0.46607h-23.21493c-1.60829,0 -2.41244,0.80415 -2.41244,2.41244v108.39141h-3.22544z" data-paper-data="{&quot;isLogoContainer&quot;:true}" fill-rule="nonzero" id="element-id-54095"></path></g></g><g class="watermark-group" style="opacity:0.040000010281801224"></g><rect data-element-id="element-id-54095" stroke-width="2" fill="transparent" class="invisible-element-box individual-element" x="186" y="115" width="183" height="240"></rect><rect data-element-id="element-id-15860" stroke-width="2" fill="transparent" class="invisible-element-box grouping-element" x="181" y="235" width="158" height="61" data-element-name="isPrimaryText"></rect><rect data-element-id="element-id-8235" stroke-width="2" fill="transparent" class="invisible-element-box grouping-element" x="215" y="119" width="90" height="106" data-element-name="isIcon"></rect><rect data-element-id="element-id-2082" stroke-width="2" fill="transparent" class="invisible-element-box individual-element" x="215" y="119" width="90" height="106"></rect><rect data-element-id="element-id-23922" stroke-width="2" fill="transparent" class="invisible-element-box individual-element" x="181" y="236" width="38" height="58"></rect><rect data-element-id="element-id-47792" stroke-width="2" fill="transparent" class="invisible-element-box individual-element" x="305" y="235" width="35" height="61"></rect><rect data-element-id="element-id-97349" stroke-width="2" fill="transparent" class="invisible-element-box individual-element" x="261" y="236" width="36" height="58"></rect><rect data-element-id="element-id-10218" stroke-width="2" fill="transparent" class="invisible-element-box individual-element" x="227" y="236" width="24" height="58"></rect><rect data-element-id="element-id-33810" stroke-width="2" fill="transparent" class="invisible-element-box grouping-element" x="186" y="304" width="150" height="8" data-element-name="isSecondaryText"></rect><rect data-element-id="element-id-6766" stroke-width="2" fill="transparent" class="invisible-element-box individual-element" x="186" y="304" width="8" height="8"></rect><rect data-element-id="element-id-16968" stroke-width="2" fill="transparent" class="invisible-element-box individual-element" x="280" y="304" width="8" height="8"></rect><rect data-element-id="element-id-97602" stroke-width="2" fill="transparent" class="invisible-element-box individual-element" x="291" y="304" width="8" height="8"></rect><rect data-element-id="element-id-71653" stroke-width="2" fill="transparent" class="invisible-element-box individual-element" x="317" y="304" width="8" height="8"></rect><rect data-element-id="element-id-12433" stroke-width="2" fill="transparent" class="invisible-element-box individual-element" x="198" y="304" width="7" height="8"></rect><rect data-element-id="element-id-40544" stroke-width="2" fill="transparent" class="invisible-element-box individual-element" x="224" y="304" width="7" height="8"></rect><rect data-element-id="element-id-30075" stroke-width="2" fill="transparent" class="invisible-element-box individual-element" x="259" y="304" width="7" height="8"></rect><rect data-element-id="element-id-90443" stroke-width="2" fill="transparent" class="invisible-element-box individual-element" x="329" y="304" width="7" height="8"></rect><rect data-element-id="element-id-48445" stroke-width="2" fill="transparent" class="invisible-element-box individual-element" x="270" y="304" width="6" height="8"></rect><rect data-element-id="element-id-57267" stroke-width="2" fill="transparent" class="invisible-element-box individual-element" x="301" y="304" width="6" height="8"></rect><rect data-element-id="element-id-18909" stroke-width="2" fill="transparent" class="invisible-element-box individual-element" x="209" y="304" width="5" height="8"></rect><rect data-element-id="element-id-31026" stroke-width="2" fill="transparent" class="invisible-element-box individual-element" x="236" y="304" width="5" height="8"></rect><rect data-element-id="element-id-4575" stroke-width="2" fill="transparent" class="invisible-element-box individual-element" x="250" y="304" width="5" height="8"></rect><rect data-element-id="element-id-4481" stroke-width="2" fill="transparent" class="invisible-element-box individual-element" x="217" y="304" width="4" height="8"></rect><rect data-element-id="element-id-79405" stroke-width="2" fill="transparent" class="invisible-element-box individual-element" x="310" y="304" width="4" height="8"></rect></svg>
