<?xml version="1.0" standalone="no"?>
<!DOCTYPE svg PUBLIC "-//W3C//DTD SVG 20010904//EN"
 "http://www.w3.org/TR/2001/REC-SVG-20010904/DTD/svg10.dtd">
<svg version="1.0" xmlns="http://www.w3.org/2000/svg"
 width="500.000000pt" height="500.000000pt" viewBox="0 0 500.000000 500.000000"
 preserveAspectRatio="xMidYMid meet">

<g transform="translate(0.000000,500.000000) scale(0.100000,-0.100000)"
fill="#000000" stroke="none">
<path d="M3651 3101 c-18 -17 -33 -31 -35 -31 -1 0 -36 11 -76 25 -100 34
-110 33 -110 -10 0 -30 5 -37 38 -54 69 -35 121 -108 157 -221 22 -67 31 -80
60 -80 42 0 46 17 43 200 -3 164 -4 173 -25 187 -19 13 -24 12 -52 -16z"/>
<path d="M3229 3096 c-69 -28 -104 -52 -156 -109 -79 -85 -132 -241 -133 -390
0 -125 49 -276 116 -356 58 -69 187 -131 274 -131 40 0 40 0 40 38 0 31 -5 41
-24 50 -14 6 -33 23 -43 39 -16 25 -18 57 -18 373 0 377 3 398 56 426 24 12
29 21 29 49 0 35 -1 35 -42 35 -24 0 -68 -11 -99 -24z"/>
<path d="M188 3103 c-9 -2 -20 -12 -23 -22 -6 -20 3 -51 14 -51 29 0 48 -54
146 -415 59 -214 113 -414 121 -442 l15 -53 74 0 c61 0 76 3 83 18 5 9 27 88
48 175 l39 158 -33 122 c-17 67 -49 186 -69 264 l-38 143 33 29 c37 34 41 56
13 71 -19 10 -387 13 -423 3z"/>
<path d="M770 3105 c0 -3 -20 -82 -44 -175 l-44 -170 84 -312 c46 -171 88
-316 92 -320 5 -5 42 -8 82 -6 l74 3 38 150 c20 83 37 161 37 175 0 14 -37
167 -82 340 l-83 315 -77 3 c-42 2 -77 0 -77 -3z"/>
<path d="M1072 3098 c-22 -22 -13 -45 28 -72 49 -32 50 -47 11 -205 -27 -110
-28 -116 -13 -175 8 -34 18 -65 22 -69 3 -4 28 78 54 182 27 104 57 203 67
220 10 17 36 42 59 56 44 28 44 28 30 56 -10 17 -22 19 -128 19 -79 0 -122 -4
-130 -12z"/>
<path d="M1406 3097 c-25 -18 -17 -47 19 -67 l30 -17 3 -396 2 -397 -35 -17
c-40 -19 -48 -55 -16 -73 12 -6 100 -10 216 -10 116 0 204 4 216 10 11 6 19
21 19 35 0 19 -8 28 -35 39 l-35 15 0 395 0 394 35 21 c36 21 45 47 23 69 -18
18 -418 17 -442 -1z"/>
<path d="M1988 3099 c-31 -17 -22 -57 15 -72 17 -8 39 -23 48 -33 9 -11 128
-212 264 -447 l248 -428 96 3 96 3 3 157 3 158 -193 335 -192 335 -186 0
c-107 0 -192 -5 -202 -11z"/>
<path d="M2586 3094 c-9 -8 -16 -19 -16 -23 0 -12 23 -36 53 -55 46 -28 57
-70 57 -210 l0 -125 38 -68 37 -68 5 205 c3 141 9 212 18 228 7 12 31 34 52
47 43 27 49 45 24 69 -12 13 -40 16 -134 16 -94 0 -122 -3 -134 -16z"/>
<path d="M2068 2562 c-3 -317 -5 -324 -69 -360 -34 -20 -39 -56 -10 -72 11 -5
65 -10 121 -10 56 0 110 5 121 10 29 16 24 52 -10 72 -62 35 -66 49 -71 303
-5 227 -5 231 -32 282 -15 28 -32 54 -37 58 -6 3 -11 -101 -13 -283z"/>
<path d="M3593 2685 c-17 -7 -37 -23 -43 -35 -11 -21 -11 -21 20 -5 80 41 135
-9 127 -115 -2 -30 -8 -63 -12 -74 -15 -34 19 -12 37 25 22 42 23 130 3 168
-8 16 -28 34 -46 40 -40 14 -47 13 -86 -4z"/>
<path d="M3813 2693 c-20 -7 -18 -212 3 -241 24 -35 114 -27 114 10 0 4 -13 5
-28 2 -51 -10 -62 13 -62 126 0 98 -4 111 -27 103z"/>
<path d="M3962 2688 c-8 -8 -12 -52 -12 -131 0 -107 2 -118 18 -115 15 3 17
19 20 131 1 70 -1 127 -6 127 -4 0 -13 -5 -20 -12z"/>
<path d="M4068 2689 c-22 -12 -25 -69 -5 -69 8 0 22 9 33 21 14 15 27 20 49
16 53 -8 74 12 35 33 -15 8 -27 7 -47 -4 -23 -12 -29 -12 -38 0 -7 9 -15 10
-27 3z"/>
<path d="M4271 2683 c-19 -10 -37 -24 -39 -31 -4 -11 0 -12 18 -2 14 8 41 10
71 6 30 -4 50 -3 54 5 20 31 -56 47 -104 22z"/>
<path d="M4510 2689 c-28 -12 -60 -38 -60 -51 0 -5 11 -1 24 7 31 20 85 16
100 -8 9 -15 7 -22 -13 -38 -13 -10 -34 -19 -47 -19 -19 0 -24 5 -24 25 0 14
-4 25 -8 25 -16 0 -42 -36 -42 -58 0 -20 5 -22 53 -22 65 0 121 26 125 59 6
39 -6 67 -33 79 -30 14 -41 14 -75 1z"/>
<path d="M4711 2682 c-19 -9 -37 -23 -39 -30 -4 -11 0 -12 18 -2 15 8 42 10
76 6 40 -5 53 -3 57 8 4 10 -5 18 -25 25 -41 14 -47 14 -87 -7z"/>
<path d="M4677 2625 c-9 -9 -17 -21 -17 -26 0 -20 40 -47 78 -54 51 -8 65 -25
60 -70 -7 -59 29 -34 39 28 7 45 -21 74 -77 83 -29 5 -44 14 -54 31 -12 23
-14 24 -29 8z"/>
<path d="M3544 2605 c-23 -35 -13 -119 17 -152 25 -25 77 -31 97 -11 19 19 14
26 -12 21 -43 -9 -66 27 -66 102 0 70 -10 80 -36 40z"/>
<path d="M4224 2616 c-10 -26 15 -55 59 -67 67 -17 72 -22 71 -68 -1 -51 12
-53 32 -5 26 62 -14 114 -87 114 -11 0 -24 9 -31 20 -15 23 -36 26 -44 6z"/>
<path d="M4062 2598 c-17 -17 -16 -158 1 -158 27 0 37 25 37 97 0 74 -10 89
-38 61z"/>
<path d="M4445 2529 c-11 -16 3 -57 27 -79 29 -27 97 -27 129 -1 31 25 21 34
-18 19 -42 -16 -80 2 -95 42 -10 30 -31 39 -43 19z"/>
<path d="M4231 2466 c-10 -12 -9 -17 8 -25 26 -15 74 -14 89 1 19 19 14 25
-15 25 -16 0 -37 4 -49 7 -13 5 -25 2 -33 -8z"/>
<path d="M4674 2465 c-9 -21 11 -35 52 -35 27 0 54 15 54 30 0 3 -12 6 -27 6
-16 1 -38 5 -50 9 -17 5 -24 3 -29 -10z"/>
<path d="M3663 2398 c-6 -7 -20 -34 -32 -60 -28 -59 -89 -113 -153 -136 -46
-16 -48 -18 -48 -54 0 -36 2 -38 30 -38 75 0 200 93 244 182 28 57 32 88 14
106 -16 16 -43 15 -55 0z"/>
</g>
</svg>
